<svg width="12" height="12" viewBox="0 0 12 12" fill="none" xmlns="http://www.w3.org/2000/svg">
<path d="M11.8421 1.43912C11.8848 1.48067 11.9188 1.5304 11.942 1.58537C11.9652 1.64033 11.9772 1.69941 11.9772 1.7591C11.9772 1.81878 11.9652 1.87786 11.942 1.93283C11.9188 1.98779 11.8848 2.03752 11.8421 2.07907L8.28583 5.71307C8.24308 5.75462 8.2091 5.80435 8.18589 5.85932C8.16269 5.91428 8.15073 5.97336 8.15073 6.03305C8.15073 6.09273 8.16269 6.15181 8.18589 6.20678C8.2091 6.26174 8.24308 6.31147 8.28583 6.35302L11.8649 9.94131C11.9076 9.98286 11.9416 10.0326 11.9648 10.0876C11.988 10.1425 12 10.2016 12 10.2613C12 10.321 11.988 10.3801 11.9648 10.435C11.9416 10.49 11.9076 10.5397 11.8649 10.5813L10.5655 11.8726C10.477 11.9545 10.3611 12 10.2406 12C10.1202 12 10.0042 11.9545 9.91579 11.8726L6.31391 8.29573C6.27149 8.25254 6.22092 8.21824 6.16515 8.19483C6.10938 8.17141 6.04952 8.15936 5.98906 8.15936C5.9286 8.15936 5.86874 8.17141 5.81297 8.19483C5.7572 8.21824 5.70663 8.25254 5.66421 8.29573L2.08513 11.8612C1.99669 11.9431 1.88069 11.9886 1.76028 11.9886C1.63987 11.9886 1.52388 11.9431 1.43543 11.8612L0.136018 10.5813C0.0929388 10.5387 0.0587282 10.488 0.0353769 10.4321C0.0120256 10.3762 0 10.3162 0 10.2556C0 10.195 0.0120256 10.1349 0.0353769 10.079C0.0587282 10.0231 0.0929388 9.97242 0.136018 9.92988L3.72649 6.33017C3.76957 6.28763 3.80378 6.23693 3.82713 6.18102C3.85049 6.12511 3.86251 6.06509 3.86251 6.00448C3.86251 5.94386 3.85049 5.88385 3.82713 5.82793C3.80378 5.77202 3.76957 5.72132 3.72649 5.67879L0.136018 2.0905C0.0929388 2.04797 0.0587282 1.99727 0.0353769 1.94135C0.0120256 1.88544 0 1.82543 0 1.76481C0 1.70419 0.0120256 1.64418 0.0353769 1.58827C0.0587282 1.53235 0.0929388 1.48166 0.136018 1.43912L1.44683 0.136368C1.48925 0.093178 1.53982 0.0588794 1.59559 0.035468C1.65136 0.0120565 1.71122 0 1.77168 0C1.83214 0 1.892 0.0120565 1.94777 0.035468C2.00354 0.0588794 2.05411 0.093178 2.09653 0.136368L5.6984 3.72466C5.78685 3.80658 5.90284 3.85207 6.02326 3.85207C6.14367 3.85207 6.25966 3.80658 6.34811 3.72466L9.89299 0.147795C9.93542 0.104606 9.98598 0.070307 10.0418 0.0468956C10.0975 0.0234842 10.1574 0.0114277 10.2178 0.0114277C10.2783 0.0114277 10.3382 0.0234842 10.3939 0.0468956C10.4497 0.070307 10.5003 0.104606 10.5427 0.147795L11.8421 1.43912Z" fill="black"/>
</svg>
