<svg width="14" height="14" fill="none" xmlns="http://www.w3.org/2000/svg"><path d="m6.32 8.09-.08.08L4.8 9.65a1.27 1.27 0 0 0-.36.94 1.2 1.2 0 0 0 1.28 1.12c.31-.02.6-.15.8-.38l1.89-1.9 1.79-1.75a1.17 1.17 0 0 0 .1-1.48c-.14-.18-.3-.33-.45-.5L6.36 2.26a1.14 1.14 0 0 0-1.02-.29c-.28.04-.54.2-.71.42-.17.19-.26.43-.28.68a1.21 1.21 0 0 0 .4 1.02l1.6 1.62H1.05c-.3.05-.55.2-.74.43a1.2 1.2 0 0 0-.28 1.02c.06.25.2.47.4.63.22.2.5.3.8.3H6.31ZM11.62 7v4a.6.6 0 0 1-.27.52.68.68 0 0 1-.42.11h-1.3a1.22 1.22 0 0 0-.87.85 1.2 1.2 0 0 0 .41 1.26c.2.17.45.25.7.25h1.67a2.86 2.86 0 0 0 1.37-.67A3 3 0 0 0 14 11V2.64a2.65 2.65 0 0 0-.27-.91c-.2-.43-.5-.8-.88-1.1a2.9 2.9 0 0 0-1.8-.63H9.68a1.2 1.2 0 0 0-.66.38A1.17 1.17 0 0 0 8.9 1.8a1.16 1.16 0 0 0 1.01.57h1.2a.64.64 0 0 1 .56.57v4.02l-.06.04Z" fill="#fff"/><path d="M6.32 8.09H1.24c-.29 0-.57-.1-.8-.3a1.16 1.16 0 0 1-.42-.64A1.2 1.2 0 0 1 .3 6.13c.18-.24.45-.4.74-.45h5.32l-.09-.08-1.52-1.52a1.2 1.2 0 0 1-.4-1.02c.02-.25.11-.49.28-.68.17-.23.43-.38.7-.42a1.13 1.13 0 0 1 1.03.29L9.8 5.68c.15.15.3.31.45.49a1.17 1.17 0 0 1-.1 1.48L8.4 9.44l-1.87 1.9c-.21.22-.5.35-.8.37a1.18 1.18 0 0 1-1.3-1.12 1.27 1.27 0 0 1 .36-.94l1.46-1.48.08-.07v-.01Z" fill="#fff"/><path d="M11.61 7V2.99a.64.64 0 0 0-.52-.58H9.9a1.15 1.15 0 0 1-1.01-.57c-.13-.2-.2-.44-.19-.69.02-.29.15-.56.37-.76.17-.2.4-.33.66-.38h1.34a3.06 3.06 0 0 1 2.67 1.65c.15.3.24.6.27.92v8.38a2.89 2.89 0 0 1-1.08 2.33 2.87 2.87 0 0 1-1.37.67H9.88a1.1 1.1 0 0 1-.7-.2 1.19 1.19 0 0 1-.22-1.64c.17-.21.4-.36.67-.43h1.29c.15.01.3-.03.42-.11a.6.6 0 0 0 .26-.51V6.97l.01.04Z" fill="#fff"/></svg>