<svg width="111" height="24" fill="none" xmlns="http://www.w3.org/2000/svg"><path d="M13.87 8.06c5-1.7 5.34-8.06.45-8.06a5 5 0 0 0-4.06 2.95l-6.6 11.68c-.27.51-.59 1-.95 1.44a5.45 5.45 0 0 1 1.15-7.49l.13-.06-1-1.28c-5.2 3.36-3.68 13.05 5 13.05 7.21 0 10.61-9.04 5.88-12.23Zm-6.06 10.3a6.95 6.95 0 0 1-3.54-.88c.46-.56.87-1.16 1.23-1.79l4.13-7.31.66.07c5.76 1.24 3.47 9.9-2.48 9.9Zm2.64-11.5 2-3.47c1.8-3.16 4.08-1.3 2.85 1.02-.95 1.9-2.3 2.45-4.85 2.45Z" fill="#fff"/><path d="m110.02 13.38-.17.2a11.62 11.62 0 0 1-4.5 3.51c.4-.65.72-1.35 1-1.88l2.72-4.75c2.29-3.98-1.42-5.31-3.92-3.07l.5-.87h-2.43l-3.84 6.81-.17.2a5.32 5.32 0 0 1-3.71 1.86l2.32-4.1c1.49-2.63.12-5.11-2.2-5.11-1.9 0-3.36.78-4.78 3.28l-1.2 2.15-1 1.76-.13.15c-1.77 2.15-3.5 3.87-4.58 3.87-.54 0-.85-.39-.28-1.37l3.54-6.4c1.06-1.92 0-3.29-1.32-3.29a4.92 4.92 0 0 0-3.42 1.92l3.92-6.98h-2.36L77.1 13.4l-.14.17a15.28 15.28 0 0 1-3 2.72c.78-2.4.62-6.06 2.13-9.28l-1.85-1.03c-1 1.43-3.23 4.71-5.45 7.37l-.17.2c-1.77 2.1-3.5 3.76-4.58 3.76-.54 0-.85-.39-.28-1.37l2.46-4.4a2.61 2.61 0 0 0-.34-3.37l-1.34-1.7a1.03 1.03 0 0 1-.12-1.14c.06-.12.15-.22.25-.3L63.4 3.6c-1.4 1.28-1.52 2.7-.64 3.87l.2.28c-1.08 1.57-2.54 3.7-4.14 5.63l-.17.2c-1.78 2.1-4 3.76-5.77 3.76-1.5.05-2.4-.97-1.28-3.02l.24-.43c1.58.68 4.56.36 6.4-2.9l.36-.62c1.32-2.32 0-4.09-2-4.09A5.12 5.12 0 0 0 52 9.21l-2.35 4.2-.15.17a5.23 5.23 0 0 1-3.7 1.86l2.3-4.1c.54-.86.85-1.85.9-2.87a2.18 2.18 0 0 0-.54-1.55 2.1 2.1 0 0 0-1.46-.7h-.2c-.57.01-1.13.2-1.6.55l3.12-5.53h-2.5L39 13.42l-.13.16c-1.82 2.1-3.54 3.81-4.63 3.81-.54 0-.85-.39-.28-1.37l2.45-4.4a2.61 2.61 0 0 0-.35-3.44l-1.38-1.7a1.03 1.03 0 0 1-.12-1.14c.06-.12.15-.22.25-.3L33.55 3.6C32.15 4.88 32 6.3 33 7.47l.2.28c-1.08 1.57-2.54 3.7-4.14 5.63l-.17.2c-1.82 2.1-3.54 3.81-4.63 3.81-.54 0-.85-.39-.28-1.37l4-7.06h-1.46c0-.69-.26-1.35-.73-1.85a2.52 2.52 0 0 0-1.8-.78 5.37 5.37 0 0 0-4.25 2.88l-3.44 6.14c-1 1.86-.3 3.57 1.68 3.57a5.95 5.95 0 0 0 3.4-1.64c.08.5.34.96.74 1.26.4.3.9.44 1.4.38 2 0 4.36-2.22 6.4-4.64 1.16-1.4 2-2.66 4-5.34l.32.41a1.23 1.23 0 0 1 .14 1.42l-2.57 4.58c-1 1.86-.31 3.57 1.68 3.57 1.43 0 3-1.1 4.5-2.58 0 .7.26 1.37.73 1.88.48.5 1.13.8 1.81.8h.3A5.33 5.33 0 0 0 45 16.7h.54a7.12 7.12 0 0 0 3.26-1.03c-.13 1.81 1.16 3.2 3.33 3.2 2.8 0 5.55-2.23 7.59-4.64 1.18-1.4 2.1-2.66 4.06-5.38l.33.4a1.23 1.23 0 0 1 .14 1.43l-2.6 4.61c-1 1.87-.31 3.57 1.68 3.57s4.36-2.22 6.4-4.63c1.39-1.64 2.62-3.4 3.49-4.58-1 2.6-.45 7.3-2.78 7.3a1.4 1.4 0 0 1-1.16-.92l-1.53.8c.15.61.5 1.14.99 1.51.48.37 1.08.56 1.69.54h.75A8.5 8.5 0 0 0 75 17.16l-.84 1.5h2.48l3.74-6.68c3.73-4.82 5.41-4.23 4.34-2.36l-3.19 5.73c-1 1.85-.3 3.57 1.68 3.57 1.43 0 3-1.1 4.52-2.6 0 3.2 4.34 3.83 7 .4h.55a6.7 6.7 0 0 0 2.73-.65L93.55 24h2.47l7.34-13.06c2.66-3.78 4.4-2.42 3.77-1.28l-3.71 6.57c-.09.16-.21.3-.37.4a.98.98 0 0 1-1.4-.4l-1.4.67c.16.6.51 1.14 1 1.5.49.38 1.09.57 1.7.55h.14c3.56-.08 5.9-2.25 7.91-4.64a1.58 1.58 0 0 0-.98-.93ZM54.13 9.85c1.42-2.48 3.92-2.04 2.45.53l-.35.63c-1.18 2.04-2.76 2.04-3.68 1.67l1.58-2.83Zm-31.47 3.96c-1.49 2.4-3 3.53-4 3.53-.54 0-.85-.39-.28-1.37l3.42-6.14c1.32-2.34 3.95-1.74 2.75.53l-1.89 3.45Zm18.49 3.43a.9.9 0 0 1-.67-.22.94.94 0 0 1-.33-.74c.04-.47.19-.91.43-1.3l.87-1.55A3.75 3.75 0 0 0 43 16.07a2.3 2.3 0 0 1-1.85 1.17Zm2.57-2.44a2.72 2.72 0 0 1-1-2.27c0-1.79 1.7-4.7 3.1-4.7a.92.92 0 0 1 .65.31.97.97 0 0 1 .24.7v.1a3.04 3.04 0 0 1-.47 1.48l-2.52 4.38Zm50.44-1.26h-.14c-.39.01-.75.17-1.02.45s-.43.66-.43 1.05c.01.3.1.59.24.85-1.16 2.04-4 1.63-2.5-.96l1.87-3.3 1.18-2.05c1.73-3 4.09-1.82 2.6.8l-1.8 3.16Z" fill="#fff"/></svg>