<svg width="371" height="155" fill="none" xmlns="http://www.w3.org/2000/svg"><path d="M120.37 11.58c7.17-2.46 7.76-11.58.65-11.58-2.01 0-4.3 1.39-5.9 4.22L105.43 21c-.4.72-.85 1.4-1.37 2.03-2.47-3.44-1.75-8.56 1.72-10.81l-1.35-1.82c-7.5 4.82-5.3 18.73 7.2 18.73 10.65-.01 15.6-12.92 8.73-17.55Zm-8.83 14.76c-1.8.05-3.57-.38-5.15-1.25.67-.8 1.26-1.65 1.78-2.56l6.03-10.5 1 .1c8.32 1.77 5 14.21-3.66 14.21Zm3.84-16.42 2.89-5c2.6-4.54 5.94-1.87 4.16 1.52-1.38 2.6-3.41 3.4-7.05 3.48Z" fill="#fff"/><path d="m260.3 19.25-.24.27a16.73 16.73 0 0 1-6.52 5.07c.58-.93 1-1.95 1.47-2.7l3.95-6.84c3.33-5.7-2.06-7.62-5.7-4.33l.72-1.25h-3.58l-5.58 9.78-.24.27a7.67 7.67 0 0 1-5.4 2.67l3.37-5.86c2.17-3.78.17-7.34-3.2-7.34-2.75 0-4.87 1.1-6.93 4.7l-1.76 3.05-1.47 2.5-.19.23c-2.58 3.04-5.08 5.41-6.66 5.41-.8 0-1.24-.56-.42-2.03l5.16-9.11c1.54-2.74.06-4.71-1.93-4.71-1.55 0-3.2.86-5.02 2.73l5.7-10.02h-3.58l-9.9 17.5-.2.24a22.17 22.17 0 0 1-4.28 3.92c1.14-3.43.9-8.7 3.1-13.31l-2.68-1.46c-1.48 2.03-4.71 6.76-7.94 10.57l-.24.27c-2.58 3.04-5.08 5.41-6.67 5.41-.79 0-1.23-.56-.4-2.03l3.57-6.3c1.23-2.2.65-3.47-.52-4.89l-2-2.42a1.43 1.43 0 0 1 .06-2.03l.1-.09-1.85-2.02c-2 1.83-2.2 3.88-.93 5.54l.3.41c-1.57 2.25-3.7 5.3-6.02 8.1l-.24.28c-2.58 3.04-5.88 5.41-8.38 5.41-2.2 0-3.51-1.39-1.86-4.3l.34-.62c2.3 1.01 6.63.51 9.3-4.16l.52-.9c1.93-3.32.07-5.82-2.85-5.82a7.52 7.52 0 0 0-6.67 4.13l-3.48 6.08-.22.24a7.6 7.6 0 0 1-5.39 2.67l3.37-5.86a8.72 8.72 0 0 0 1.34-4.14 3.06 3.06 0 0 0-1.68-2.92 2.99 2.99 0 0 0-1.14-.3h-.42c-.84.02-1.66.3-2.34.8l4.54-7.94h-3.65l-10 17.45-.2.21c-2.57 3.04-5.07 5.41-6.66 5.41-.8 0-1.23-.56-.41-2.03l3.57-6.3c1.24-2.2.66-3.47-.5-4.89l-2.02-2.42a1.41 1.41 0 0 1 .07-2.03l.14-.1-1.85-2.03c-2.01 1.83-2.2 3.88-.93 5.54l.31.41c-1.57 2.25-3.71 5.3-6.02 8.1l-.24.28c-2.58 3.04-5.08 5.41-6.67 5.41-.8 0-1.24-.56-.41-2.03l5.77-10.19h-2A3.75 3.75 0 0 0 135 9.12c-1.93 0-4.6 1.53-6.12 4.16l-5.02 8.73c-1.52 2.68-.44 5.13 2.44 5.13 1.45 0 3.23-.93 4.95-2.36.17 1.39 1.28 2.36 3.1 2.36 2.95 0 6.35-3.2 9.3-6.66 1.72-2.02 3.02-3.8 5.9-7.73l.5.6a1.77 1.77 0 0 1 .2 2.02l-3.77 6.61c-1.51 2.68-.45 5.13 2.44 5.13 2.06 0 4.35-1.57 6.56-3.7 0 2.46 1.82 3.85 4.13 3.85a7.85 7.85 0 0 0 6.03-3.34 10.3 10.3 0 0 0 5.53-1.42c-.2 2.6 1.69 4.58 4.84 4.58 4.02 0 8.03-3.2 11.05-6.66 1.71-2.02 3-3.8 5.9-7.73l.48.6a1.76 1.76 0 0 1 .21 2.02l-3.77 6.61c-1.52 2.68-.44 5.13 2.44 5.13s6.35-3.2 9.3-6.66c2.02-2.36 3.82-4.88 5.09-6.58-1.4 3.75-.65 10.46-4.02 10.46a2 2 0 0 1-1.69-1.31l-2.17 1.17a3.93 3.93 0 0 0 3.91 2.9c.34 0 .68 0 1-.06h.1c2-.34 3.89-1.16 5.5-2.4l-1.22 2.15h3.6l5.42-9.53c5.5-6.97 7.94-6.08 6.39-3.4l-4.64 8.11c-1.52 2.67-.44 5.13 2.44 5.13 2.08 0 4.37-1.58 6.58-3.72 0 4.6 6.32 5.5 10.2.56h.78a9.66 9.66 0 0 0 3.83-.95l-6.5 11.38h3.6l10.68-18.75c4.02-5.48 6.5-3.46 5.57-1.83l-5.4 9.43a1.38 1.38 0 0 1-1.29.9 1.37 1.37 0 0 1-1.29-.9l-2 1.01a3.93 3.93 0 0 0 3.91 2.9h.21c5.2-.1 8.59-3.21 11.51-6.65a2.29 2.29 0 0 0-1.43-1.16Zm-81.34-5.07c2.01-3.56 5.7-2.98 3.58.76l-.51.9c-1.72 2.95-4.02 2.88-5.37 2.4l2.3-4.06Zm-45.8 5.69c-2.17 3.43-4.3 5.06-5.77 5.06-.8 0-1.24-.56-.42-2.02l5.03-8.78c1.92-3.36 5.73-2.49 4.01.76l-2.85 4.98Zm26.9 4.92a1.32 1.32 0 0 1-1.4-1.23v-.16c.06-.66.28-1.3.63-1.87l1.2-2.28a5.35 5.35 0 0 0 2.27 3.74 3.37 3.37 0 0 1-2.7 1.76v.04Zm3.73-3.52a3.88 3.88 0 0 1-1.52-3.26c0-2.56 2.47-6.75 4.5-6.75a1.35 1.35 0 0 1 1.27.85c.06.17.1.35.1.53a4.33 4.33 0 0 1-.68 2.32l-3.67 6.31Zm73.39-1.8H237a2.11 2.11 0 0 0-2.1 2.14c0 .43.12.85.34 1.21v.08c-1.69 2.9-5.78 2.36-3.65-1.4l4.4-7.7c2.51-4.3 5.95-2.6 3.78 1.14l-2.6 4.53ZM0 74.22l5.73-5.8 5.75 5.8-5.75 5.81L0 74.22Zm353.49 0 5.74-5.79 5.73 5.8-5.7 5.8-5.77-5.81Z" fill="#fff"/><path d="M47 74.44h2.09v-8.43h3.28V63.9H47v10.55Zm14.95 1.54V63.13a4.65 4.65 0 0 0-2.57-4.12c.32.63.48 1.32.48 2.03v12.84a4.57 4.57 0 0 1-1.62 3.56 5.27 5.27 0 0 1 1.67 3.74v14.28a4.7 4.7 0 0 1-1.4 3.29 4.62 4.62 0 0 1-3.28 1.33H41.67v2.1h15.7a4.62 4.62 0 0 0 4.58-4.61V83.28a5.3 5.3 0 0 0-1.7-3.73 4.48 4.48 0 0 0 1.7-3.57Z" fill="#636466"/><path d="M47 92.53h2.09V84.1h3.28v-2.16H47v10.6Zm33.14 0h2.09V66.01h3.28V63.9h-5.36l-.01 28.64Z" fill="#636466"/><path d="M92.53 59.01c.32.63.48 1.32.48 2.03v34.44a4.7 4.7 0 0 1-4.58 4.62h-11.1a4.5 4.5 0 0 1-2.01-.48 4.6 4.6 0 0 0 4.08 2.59h11.13a4.62 4.62 0 0 0 4.58-4.62V63.14a4.64 4.64 0 0 0-2.58-4.13Zm20.77 15.43h2.09v-8.43h3.29V63.9h-5.38v10.55Zm12.3 9.12a4.5 4.5 0 0 0 2.6-4.12v-16.3a4.63 4.63 0 0 0-2.58-4.16c.31.63.48 1.32.48 2.03v16.36a4.53 4.53 0 0 1-2.58 4.12l3.1 18.6h-5.71l.35 2.1h7.42l-3.08-18.63Zm-9.46-1.67h-2.84v18.2h-5.34v2.1h7.43V84.1h1.1l-.35-2.2Zm29.31 10.6h2.1V66.01h3.28V63.9h-5.38v28.6Z" fill="#636466"/><path d="M157.84 59.01c.32.63.49 1.32.49 2.03v34.44a4.7 4.7 0 0 1-4.58 4.62H142.6a4.5 4.5 0 0 1-2-.48 4.61 4.61 0 0 0 4.08 2.59h11.13a4.62 4.62 0 0 0 4.58-4.62V63.14a4.63 4.63 0 0 0-2.55-4.13Zm20.76 33.52h2.1V66.01h3.28V63.9h-5.38v28.64Z" fill="#636466"/><path d="M191 59.01c.31.63.48 1.32.47 2.03v34.44a4.62 4.62 0 0 1-4.58 4.62h-13.61v2.1h15.7c1.21 0 2.37-.5 3.23-1.36a4.7 4.7 0 0 0 1.35-3.25V63.14a4.66 4.66 0 0 0-2.57-4.13Zm21.13-.48v41.53h-5.33v2.12h7.42V58.53h-2.09Zm33.02 0v41.53h-5.92l.59 2.12h7.43V58.53h-2.1ZM232.3 81.05v19.03h-5.34v2.12h7.43V88.33l-2.1-7.28Zm32.4 3.03h6.14v-2.15h-8.23c-.7 0-1.38-.17-2-.49a4.57 4.57 0 0 0 4.1 2.64Zm2.85 2.77-2.1.49v5.2h2.1v-5.69Zm10.29-27.84c.32.63.48 1.32.48 2.03v8.86l-5.4 1.26v2.6L280.4 72v-8.87a4.65 4.65 0 0 0-2.57-4.12Z" fill="#636466"/><path d="M277.83 77.04c.32.63.48 1.33.48 2.03v16.41a4.7 4.7 0 0 1-4.58 4.62H262.6c-.7 0-1.38-.17-2-.48a4.61 4.61 0 0 0 4.08 2.59h11.13a4.7 4.7 0 0 0 4.58-4.62V81.17a4.63 4.63 0 0 0-2.55-4.13Zm-12.4-13.17v10.57h2.1v-8.43h3.29V63.9l-5.38-.02Zm33.83 18.06h-.69v18.15h-5.34v2.12h7.42V86.47l-1.4-4.54Zm15.2-23.4h-2.75l-6.26 19.66 6.93 21.9h-6.02l.58 1.85.06.26h7.48l-6.93-21.9 6.93-21.77h-.02Zm17.46 0v41.53h-5.33v2.12H334V58.53h-2.08Z" fill="#636466"/><path d="M168.6 125.47h1.43c5.45.28 9.73 1.75 12.44 4.78 2.75-3.04 7.03-4.52 12.51-4.78h1.36c12.16.83 17.7 9.62 27.41 13.36 1.51.7 3.15 1.04 4.81 1.01 2.5-.27 4.08-2.81 3.76-5.65-.34-3.04-3.3-5.68-6.6-4.22-.42.2-.82.47-1.17.8-.25.24-.53.85-1.17.63-.6-.51 0-1.25.31-1.68a6.04 6.04 0 0 1 6.1-3.03c5.65.4 10.71 5.4 9.85 12.98-1.93 11.28-12.15 14.32-24.27 15.33h-3.95a48.27 48.27 0 0 1-28.9-11.14A48.96 48.96 0 0 1 153.52 155h-3.88c-12.21-1.08-22.54-4.05-24.33-15.66-.69-8.27 4.2-12.33 9.86-12.75a6.07 6.07 0 0 1 6.16 3.04c.28.47.8 1.19.32 1.75-.62.1-.92-.38-1.18-.62a4 4 0 0 0-2.83-1.25c-3.88-.14-6.1 4.2-4.56 7.71a4.38 4.38 0 0 0 3.38 2.55c1.66.01 3.3-.33 4.81-1a24.01 24.01 0 0 0 3.89-1.93c7.38-4.32 13.16-10.45 23.46-11.37Z" fill="#fff"/><path d="m363.17 84 5.73-5.8 2.1 2.12-5.74 5.8-2.1-2.13ZM9.68 84l5.73-5.8 2.1 2.12-5.7 5.8-2.13-2.13Z" fill="#636466"/><path d="M55.88 69.9a4.53 4.53 0 0 1-1.65 3.53 5.27 5.27 0 0 1 1.66 3.74v14.28a4.7 4.7 0 0 1-4.57 4.62H35.6V52.4h15.7c1.22 0 2.38.49 3.24 1.35a4.66 4.66 0 0 1 1.34 3.27V69.9ZM48.4 59.88h-5.38v10.55h5.38V59.88Zm0 18.04h-5.38v10.6h5.38v-10.6ZM84.45 52.4c1.22 0 2.38.49 3.24 1.35a4.66 4.66 0 0 1 1.34 3.27v34.44a4.7 4.7 0 0 1-4.58 4.62H73.31a4.68 4.68 0 0 1-4.58-4.62V57.02a4.56 4.56 0 0 1 4.58-4.62h11.15Zm-2.9 7.48h-5.38v28.64h5.38V59.88Zm33.64 36.19-3-18.15h-2.85v18.15h-7.42V52.4h15.7a4.51 4.51 0 0 1 4.19 2.86c.22.56.34 1.15.33 1.76v16.35a4.56 4.56 0 0 1-2.64 4.11l3.1 18.59h-7.4Zm-.49-36.19h-5.38v10.55h5.38V59.88Zm35.07-7.48c1.21 0 2.37.49 3.23 1.35a4.66 4.66 0 0 1 1.35 3.27v34.44a4.7 4.7 0 0 1-4.58 4.62h-11.13a4.6 4.6 0 0 1-4.58-4.62V57.02a4.64 4.64 0 0 1 4.52-4.62h11.19Zm-2.91 7.48h-5.39v28.64h5.39V59.88Zm36.06-7.48c1.21 0 2.37.49 3.23 1.35a4.66 4.66 0 0 1 1.35 3.27v34.44a4.7 4.7 0 0 1-4.58 4.62h-15.7V52.4h15.7Zm-2.9 7.48h-5.39v28.64h5.39V59.88Zm20.71-7.48h7.43v43.67h-7.43V52.4Zm40.45 0v43.67h-7.42l-5.44-19.08v19.08h-7.4V52.4h7.37l5.44 17.9V52.4h7.45Zm28.57 18.03a4.66 4.66 0 0 1 4.58 4.62v16.41a4.7 4.7 0 0 1-4.58 4.62h-11.12a4.6 4.6 0 0 1-3.22-1.37 4.68 4.68 0 0 1-1.34-3.25v-8.99l7.42-1.74v7.8h5.38V77.92h-8.22a4.53 4.53 0 0 1-4.23-2.84 4.65 4.65 0 0 1-.35-1.76v-16.3a4.56 4.56 0 0 1 4.56-4.62h11.14c1.22 0 2.38.49 3.24 1.35a4.66 4.66 0 0 1 1.34 3.27v8.83l-7.48 1.75v-7.72h-5.38v10.55h8.26Zm31.74 3.75 6.93 21.9h-7.49l-.06-.25-5.56-17.9h-.68v18.14h-7.42V52.4h7.42v18.03h.61l5.7-18.03h7.54l-7 21.78Zm19.08-21.78h7.42v43.67h-7.42V52.4Z" fill="#fff"/></svg>